# xmcd
#
# Track frame offsets:
#	150
#	12762
#	30364
#	45117
#	64923
#	79024
#	95641
#	111620
#	122672
#	134903
#	151483
#	162750
#
# Disc length: 2429 seconds
# Revision: 0
# Processed by: cddbd v1.5.2PL0 Copyright (c) Steve Scherf et al.
# Submitted via: dBpowerAMP V12.0
#
DISCID=97097b0c
DTITLE=The Roys - Good Days
DYEAR=2008
DGENRE=Country
TTITLE0=Workin' Girl Blues
TTITLE1=Grandpa's Barn
TTITLE2=Wings
TTITLE3=A Name On A Door
TTITLE4=We're Gonna Get There
TTITLE5=She Won't Go
TTITLE6=Raining On The Roses
TTITLE7=Absolutely, Positively, Maybe
TTITLE8=D All The Above
TTITLE9=There You Go
TTITLE10=I Only Have Good Days
TTITLE11=The Good Life Paradise
EXTD=
EXTT0=
EXTT1=
EXTT2=
EXTT3=
EXTT4=
EXTT5=
EXTT6=
EXTT7=
EXTT8=
EXTT9=
EXTT10=
EXTT11=
PLAYORDER=
